<svg viewBox="0 0 780 410" role="img" xmlns="http://www.w3.org/2000/svg" style="max-width:100%;height:auto;font-family:system-ui,sans-serif">
<rect width="100%" height="100%" fill="#fdfdfc"/>
<line x1="56" y1="340.0" x2="600" y2="340.0" stroke="#e6e6e3"/>
<text x="48.0" y="344.0" text-anchor="end" fill="#666" font-size="11">$10k</text>
<line x1="56" y1="300.8" x2="600" y2="300.8" stroke="#e6e6e3"/>
<text x="48.0" y="304.8" text-anchor="end" fill="#666" font-size="11">$100k</text>
<line x1="56" y1="261.5" x2="600" y2="261.5" stroke="#e6e6e3"/>
<text x="48.0" y="265.5" text-anchor="end" fill="#666" font-size="11">$1M</text>
<line x1="56" y1="222.2" x2="600" y2="222.2" stroke="#e6e6e3"/>
<text x="48.0" y="226.2" text-anchor="end" fill="#666" font-size="11">$10M</text>
<line x1="56" y1="183.0" x2="600" y2="183.0" stroke="#e6e6e3"/>
<text x="48.0" y="187.0" text-anchor="end" fill="#666" font-size="11">$100M</text>
<line x1="56" y1="143.8" x2="600" y2="143.8" stroke="#e6e6e3"/>
<text x="48.0" y="147.8" text-anchor="end" fill="#666" font-size="11">$1B</text>
<line x1="56" y1="104.5" x2="600" y2="104.5" stroke="#e6e6e3"/>
<text x="48.0" y="108.5" text-anchor="end" fill="#666" font-size="11">$10B</text>
<line x1="56" y1="65.2" x2="600" y2="65.2" stroke="#e6e6e3"/>
<text x="48.0" y="69.2" text-anchor="end" fill="#666" font-size="11">$100B</text>
<line x1="56" y1="26.0" x2="600" y2="26.0" stroke="#e6e6e3"/>
<text x="48.0" y="30.0" text-anchor="end" fill="#666" font-size="11">$1T</text>
<text x="170.5" y="356.0" text-anchor="middle" fill="#666" font-size="11">200k</text>
<text x="285.1" y="356.0" text-anchor="middle" fill="#666" font-size="11">400k</text>
<text x="399.6" y="356.0" text-anchor="middle" fill="#666" font-size="11">600k</text>
<text x="514.1" y="356.0" text-anchor="middle" fill="#666" font-size="11">800k</text>
<text x="56.0" y="356.0" text-anchor="middle" fill="#666" font-size="11">0</text>
<text x="600.0" y="356.0" text-anchor="middle" fill="#666" font-size="11">949k</text>
<line x1="176.3" y1="26" x2="176.3" y2="340" stroke="#e6e6e3" stroke-dasharray="4 3"/>
<line x1="296.5" y1="26" x2="296.5" y2="340" stroke="#e6e6e3" stroke-dasharray="4 3"/>
<line x1="416.8" y1="26" x2="416.8" y2="340" stroke="#e6e6e3" stroke-dasharray="4 3"/>
<line x1="537.0" y1="26" x2="537.0" y2="340" stroke="#e6e6e3" stroke-dasharray="4 3"/>
<polyline points="96.1,338.2 101.8,311.1 107.5,289.5 113.3,276.3 119.0,258.4 124.7,247.4 130.4,203.5 136.2,195.6 141.9,197.4 147.6,199.0 153.3,197.8 159.1,197.1 164.8,195.3 170.5,190.4 176.3,188.1 182.0,183.6 187.7,162.2 193.4,153.6 199.2,153.0 204.9,150.6 210.6,140.8 216.3,122.2 222.1,119.6 227.8,119.5 233.5,117.8 239.2,117.3 245.0,117.8 250.7,119.1 256.4,119.4 262.1,119.7 267.9,119.6 273.6,119.7 279.3,118.1 285.1,117.5 290.8,116.6 296.5,114.1 302.2,113.5 308.0,112.3 313.7,109.9 319.4,107.1 325.1,100.5 330.9,92.2 336.6,85.3 342.3,69.8 348.0,67.3 353.8,67.1 359.5,67.4 365.2,67.4 370.9,67.8 376.7,69.5 382.4,69.8 388.1,68.3 393.9,65.4 399.6,64.9 405.3,65.1 411.0,64.2 416.8,64.5 422.5,64.0 428.2,62.8 433.9,59.4 439.7,50.3 445.4,43.6 451.1,43.3 456.8,41.9 462.6,39.3 468.3,39.4 474.0,39.0 479.7,39.6 485.5,40.9 491.2,41.4 496.9,42.5 502.7,42.4 508.4,42.0 514.1,41.7 519.8,41.8 525.6,40.9 531.3,39.5 537.0,35.8 542.7,34.5 548.5,34.1 554.2,32.7 559.9,29.2 565.6,28.4 571.4,27.2 577.1,25.5 582.8,24.3 588.5,24.0 594.3,24.5 600.0,24.6" fill="none" stroke="#2a78d6" stroke-width="2"/>
<text x="596.0" y="16.6" text-anchor="end" fill="#2a78d6" font-size="11">realized cap</text>
<text x="56.0" y="370.0" text-anchor="start" fill="#666" font-size="10">realized cap: every unspent output priced at its creation, USD, log scale; exact at the last height of each 10,000-block window; x = block height</text>
<text x="56.0" y="384.0" text-anchor="start" fill="#666" font-size="10">outputs created before the first observation (height 68,780) or after the last carry no price and are left out of the sum</text>
<text x="56.0" y="398.0" text-anchor="start" fill="#666" font-size="10">external input: price series identified by digest, see the caption</text>
</svg>
